# xmcd CD database file
#
# Track frame offsets:
#	150
#	3183
#	18608
#	45993
#	79465
#	98753
#	130932
#	162500
#
# Disc length: 2555 seconds
#
# Revision: 3
# Processed by: cddbd v1.5.2PL0 Copyright (c) Steve Scherf et al.
# Submitted via: CDex 1.51
#
DISCID=5a09f908
DTITLE=Trifixion - The First And The Last Commandment
DYEAR=1995
DGENRE=Black Metal
TTITLE0=Prologue
TTITLE1=Prince Lucifer Here I sSand
TTITLE2=Dreams Of Burning Churches
TTITLE3=Faceless Souls
TTITLE4=From Far Beyond This Land
TTITLE5=Let The Feast Begin
TTITLE6=Ascending Of The Empire
TTITLE7=The First And The Last Commandment
EXTD=YEAR: 1995
EXTT0=
EXTT1=
EXTT2=
EXTT3=
EXTT4=
EXTT5=
EXTT6=
EXTT7=
PLAYORDER=
